<svg xmlns="http://www.w3.org/2000/svg" width="25.571" height="31.705" viewBox="0 0 25.571 31.705"><path d="M9.542 13.337l-.04.91c.39.627.873 1.187 1.463 1.51.04.017.976.428 2.062.428.653 0 1.226-.15 1.68-.434.062-.03.845-.442 1.608-1.34l.018-.827.5.01-.003.114a6.238 6.238 0 0 0 .923-2.678c.338-.016 1.035-.23 1.154-1.718.014-.083.174-1.202.014-2.56-.023.145-.043.23-.043.23-.13-.015-.28.044-.427.132a10.28 10.28 0 0 1-.038 2.14c-.065.812-.32 1.277-.698 1.277-.06 0-.103-.012-.104-.012l-.31-.108-.022.325c-.232 3.213-2.774 4.56-2.817 4.582-.39.245-.873.37-1.432.37-.97 0-1.838-.378-1.84-.378-1.753-.96-2.53-4.574-2.538-4.61l-.057-.27-.262.08a.9.9 0 0 1-.253.045c-.64 0-.653-1.174-.653-1.186v-.25H7.42a11.02 11.02 0 0 1 .08-1.595c-.224-.093-.408-.05-.408-.05-.03-.03-.052-.067-.077-.1-.083.62-.114 1.285-.088 1.997.003.625.25 1.683 1.153 1.684.046 0 .093-.003.14-.01.11.44.372 1.392.824 2.35l.004-.08.5.022-.004-.003zm-2.05-5.812c.157.066.333.198.477.463 0 0-.363-3.44 1.88-3.49 0 0 .46 2.21 6.98 1.173 0 0 1.143-.22.996 1.974 0 0 .3-.338.62-.534.146-.09.297-.148.427-.133 0 0 .02-.085.045-.23.206-1.172.806-6.484-5.127-6.747 0 0-6.87.394-6.77 4.585 0 0-.65 1.938-.015 2.79.025.033.05.068.078.098 0 0 .184-.043.406.05l.002.002zm7.026 11.7l-1.314-.91-.154.03-.03.006h-.033a4.16 4.16 0 0 1-.38-.055l-1.494 1.034.983 1.653s-.542 4.41-.692 5.965l.06.172 1.477 3.353 1.3-3.172-.61-6.482.893-1.594-.004.002zm-5.364-3.81c.382.78 1.44 2.51 3.45 2.88.125.023.25.042.382.054h.032l.03-.005.155-.03c.56-.126 2.475-.665 3.276-2.295.05-.672.07-1.077.07-1.077.063.066.14.132.22.197l.03-.162.027-1.273.003-.113-.5-.01-.017.825-.013.514c-.33 2.258-2.99 2.865-3.307 2.93-2.32-.234-3.377-2.59-3.524-2.945l.03-.658.04-.91-.5-.02-.005.08-.07 1.59.017.046.007.018.2-.11c-.018.155-.03.313-.04.474h.003zm15.128 4.358s-.64-1.924-3.55-2.91c0 0-2.82-.815-3.96-1.726a2.15 2.15 0 0 1-.22-.197s-.02.405-.07 1.078c-.184 2.35-.753 7.98-2.21 11.2l-.034.083-1.298 3.174-1.478-3.353-.06-.17c-.38-1.12-2.486-7.52-2.247-11.536.01-.16.022-.32.04-.472l-.2.11c-.723.388-3.22 1.696-4.435 1.863 0 0-2.714 1.208-3.55 4.093 0 0-1.43 5.08-.888 7.644 0 0 10.06 6.705 25.445.246-.002 0 .146-6.707-1.283-9.123h-.002zm-1.398 4.832h-5.21v-.824h5.21v.826z"/></svg>