<svg xmlns="http://www.w3.org/2000/svg" width="32" height="32" viewBox="0 0 32 32"><path d="M16.516 3.354h-1.032L15.738 0h.516zM0 21.42h7.226V32H0zM17.032 5.89V3.354h-2.064v2.563a5.62 5.62 0 0 1 1.108-.112c.327 0 .645.03.956.085z"/><path d="M17.032 5.89a5.58 5.58 0 0 0-.956-.085c-.38 0-.75.04-1.108.112a5.522 5.522 0 0 0-4.416 4.922H21.6a5.52 5.52 0 0 0-4.568-4.95zM9.807 11.354h12.387v2.323H9.807zM24.774 21.42H32V32h-7.226zM9.688 19.355L16 16.482l6.313 2.873z"/><g><path d="M23.226 19.385v-5.192H8.774v5.192L16 15.98zM23.226 19.87H7.742V32h16.516V19.87h-1.032zm-12.13 10.84H9.55v-9.29h1.548v9.29zm2.84 0h-1.55v-9.29h1.55v9.29zm2.838 0h-1.548v-9.29h1.548v9.29zm2.838 0h-1.548v-9.29h1.548v9.29zm2.84 0H20.9v-9.29h1.55v9.29z"/></g></svg>